<?xml version="1.0" encoding="UTF-8"?>
<svg version="1.1" xmlns="http://www.w3.org/2000/svg" width="344" height="495">
<path d="M0 0 C90.09 0 180.18 0 273 0 C274.04306202 3.12918607 274.13081824 5.31509626 274.14044189 8.59877014 C274.14615204 9.76539688 274.15186218 10.93202362 274.15774536 12.13400269 C274.15886322 13.41630768 274.15998108 14.69861267 274.16113281 16.01977539 C274.16576299 17.38375482 274.17078792 18.74773296 274.17617798 20.11170959 C274.18931929 23.82857185 274.19575492 27.54541599 274.20018864 31.26229787 C274.20312775 33.59984465 274.20723498 35.93738661 274.21169281 38.27493095 C274.22539671 45.63049263 274.23503881 52.98604314 274.2388947 60.34161669 C274.24332763 68.74790374 274.26063646 77.15402428 274.2898953 85.56026083 C274.31184194 92.10092919 274.32161677 98.64155202 274.32293582 105.18225664 C274.32396441 109.06445658 274.3294347 112.94650085 274.34775543 116.82866096 C274.47769884 146.074192 273.10469319 175.31045422 267 204 C266.79004395 204.99225586 266.58008789 205.98451172 266.36376953 207.00683594 C256.11135857 254.43447416 235.73842281 298.07898742 205.51855469 336.08447266 C204.0519664 337.93444882 202.60500203 339.79797409 201.1640625 341.66796875 C192.13122745 353.35714188 182.49501615 364.47249251 172.46875 375.31640625 C168.64789324 379.46977428 164.90679894 383.6915374 161.3125 388.04296875 C160.77625 388.68878906 160.24 389.33460938 159.6875 390 C159.21699219 390.5775 158.74648437 391.155 158.26171875 391.75 C157 393 157 393 155 393 C154.73646729 393.59022949 154.47293457 394.18045898 154.20141602 394.78857422 C152.95023299 397.09160527 151.65195022 398.56361442 149.77734375 400.3828125 C148.84631836 401.29740234 148.84631836 401.29740234 147.89648438 402.23046875 C146.92678711 403.16826172 146.92678711 403.16826172 145.9375 404.125 C144.6527607 405.37536074 143.37010319 406.62786516 142.08984375 407.8828125 C141.52128662 408.43340332 140.95272949 408.98399414 140.36694336 409.55126953 C138.89270095 410.97414012 138.89270095 410.97414012 138 413 C135 413 135 413 133.52734375 411.6015625 C133.00269531 410.94929688 132.47804687 410.29703125 131.9375 409.625 C128.21272579 405.14887649 124.13396541 401.13791603 119.94140625 397.1015625 C118 395 118 395 118 393 C117.34 393 116.68 393 116 393 C114.765625 391.77734375 114.765625 391.77734375 113.25 389.9375 C109.62620873 385.66660315 105.83512377 381.57982249 102 377.5 C97.23430632 372.41324645 92.5203793 367.30740963 88 362 C87.195625 361.07445312 86.39125 360.14890625 85.5625 359.1953125 C78.82143391 351.39153717 72.5721475 343.28504454 66.46435547 334.97900391 C65.0760758 333.10281268 63.66881921 331.24286852 62.25390625 329.38671875 C45.7870908 307.63584275 32.12659348 283.33525984 22 258 C21.72381836 257.31679688 21.44763672 256.63359375 21.16308594 255.9296875 C13.03898234 235.5963224 7.30513934 214.62329406 3.625 193.0625 C3.50357635 192.3731839 3.38215271 191.6838678 3.25704956 190.97366333 C-1.09468392 165.89329617 -1.3083802 140.36791111 -1.23571944 114.98709226 C-1.2267204 111.15968633 -1.22870027 107.33228191 -1.2290802 103.50486755 C-1.22815529 97.11235452 -1.21961954 90.71989012 -1.20581055 84.32739258 C-1.18994163 76.95433942 -1.18481841 69.58133865 -1.1855461 62.20826966 C-1.1862215 54.29265489 -1.17929984 46.37706003 -1.1700995 38.46145129 C-1.16797629 36.19943907 -1.16725954 33.93743008 -1.16686058 31.67541695 C-1.16566819 27.47442286 -1.15595433 23.2734904 -1.14526367 19.07250977 C-1.14571686 17.83053833 -1.14617004 16.58856689 -1.14663696 15.30895996 C-1.14237198 14.16464005 -1.13810699 13.02032013 -1.13371277 11.84132385 C-1.13203692 10.85211221 -1.13036108 9.86290056 -1.12863445 8.84371281 C-1 6 -1 6 0 0 Z M4 6 C4.33 6.99 4.66 7.98 5 9 C5.99 8.01 6.98 7.02 8 6 C6.68 6 5.36 6 4 6 Z M9 17 C7.61965576 18.1437207 7.61965576 18.1437207 6.21142578 19.31054688 C3.0861939 23.11133672 3.35873728 26.0263564 3.51171875 30.80078125 C3.51879349 31.63715622 3.52586823 32.47353119 3.53315735 33.33525085 C3.56105015 35.99526052 3.62377519 38.65313139 3.6875 41.3125 C3.71258966 43.12041221 3.73540167 44.92835757 3.75585938 46.73632812 C3.81085958 51.15837073 3.89709357 55.57882331 4 60 C14.67872067 50.06007966 14.67872067 50.06007966 20 37 C23 35 23 35 26.5 35.125 C30 36 30 36 32 37.6875 C33.37694267 40.87167993 32.980224 42.70924801 32 46 C30.20674866 48.78950209 28.97144475 49.00670105 25.6875 49.77734375 C21.52490781 51.15752527 19.9746305 52.53590466 17.125 55.8125 C16.36445312 56.66457031 15.60390625 57.51664063 14.8203125 58.39453125 C14.40676514 58.93779053 13.99321777 59.4810498 13.56713867 60.04077148 C12 62 12 62 9.67700195 64.27368164 C-0.32787323 75.55794261 2.2506184 89.6326049 2.9375 103.8125 C3.03098652 106.45102324 3.12021879 109.08970084 3.20507812 111.72851562 C3.4209443 118.15494739 3.68958248 124.57747743 4 131 C5.61867833 127.88248203 6.7957827 124.7512185 7.90283203 121.4152832 C10.21528539 114.48183194 12.84010161 107.8453359 16.125 101.3125 C16.44936035 100.66635742 16.7737207 100.02021484 17.10791016 99.35449219 C18.65445195 96.3555664 20.30064896 93.56046719 22.20703125 90.7734375 C24.33617383 87.47999256 24.49232424 84.84383074 25 81 C26.25 79.0625 26.25 79.0625 28 78 C31.12414314 77.68758569 32.99825776 77.99941925 36 79 C36.25 85.625 36.25 85.625 34 89 C32.62328125 89.53947266 32.62328125 89.53947266 31.21875 90.08984375 C26.50009464 92.89011374 24.89598396 96.74268177 22.5 101.5625 C22.02369141 102.49908447 21.54738281 103.43566895 21.05664062 104.40063477 C11.46198688 123.75847045 7.06072164 143.90048712 6.75 165.4375 C6.71773315 166.77192139 6.71773315 166.77192139 6.68481445 168.13330078 C6.68054443 168.97489746 6.67627441 169.81649414 6.671875 170.68359375 C6.6625293 171.44212646 6.65318359 172.20065918 6.64355469 172.98217773 C7.09315742 175.52736034 8.16429473 176.25452127 10 178 C10.25265405 181.09501208 10.39935013 183.20129973 9 186 C9.06274328 187.9821173 9.19783231 189.96231968 9.375 191.9375 C9.46523438 192.99839844 9.55546875 194.05929688 9.6484375 195.15234375 C9.91335307 198.0694028 9.91335307 198.0694028 11 201 C13.50447516 202.21869929 13.50447516 202.21869929 16 203 C15.9071875 203.59683594 15.814375 204.19367188 15.71875 204.80859375 C14.29952553 221.86463064 28.28609593 238.9642005 38.56640625 251.2578125 C49.29051663 264.05205531 49.29051663 264.05205531 64 270 C66 272 66 272 66.375 274.9375 C66 278 66 278 64.3125 279.9375 C61.38550346 281.28233625 60.01415011 281.03115662 57 280 C55 278 55 278 54.27734375 275.71875 C52.53012875 271.99990707 49.71458969 269.98890974 46.5625 267.5 C37.0585688 259.67886483 29.10844433 250.74243658 23 240 C21.7655557 243.70333291 22.38038023 244.64147813 23.80859375 248.19921875 C24.22173828 249.23554443 24.63488281 250.27187012 25.06054688 251.33959961 C25.51494141 252.44440674 25.96933594 253.54921387 26.4375 254.6875 C26.89833984 255.82002197 27.35917969 256.95254395 27.83398438 258.11938477 C31.48464875 266.98032479 35.43622272 275.57599339 40 284 C40.41314453 284.76489746 40.82628906 285.52979492 41.25195312 286.31787109 C47.24698746 297.38724128 47.24698746 297.38724128 54 308 C54.680625 307.34 55.36125 306.68 56.0625 306 C59.70295227 303.5213942 61.67648012 303.43954372 66 304 C68.14530109 305.47951799 68.83585304 306.61140333 69.84399414 308.99804688 C71.2348419 311.40669558 72.11076298 311.82560041 74.68359375 312.78125 C75.81414185 313.20543213 75.81414185 313.20543213 76.9675293 313.63818359 C77.78261963 313.92258301 78.59770996 314.20698242 79.4375 314.5 C80.69784058 314.95173584 80.69784058 314.95173584 81.98364258 315.41259766 C97.95733098 320.93469654 114.03099029 323.17862539 130.875 323.1875 C132.09058594 323.19974609 133.30617187 323.21199219 134.55859375 323.22460938 C146.71482405 323.73296512 146.71482405 323.73296512 157.1875 318.875 C157.785625 318.25625 158.38375 317.6375 159 317 C162.43737531 316.57786619 164.82090489 316.39143478 167.9375 318 C169.65930485 321.24104443 169.66300779 324.42422767 169 328 C166.7932124 330.71604627 165.46440748 330.95162422 162 331.3125 C159 331 159 331 157.0625 329.9375 C153.94976716 328.52262144 151.35117203 329.50032353 148 330 C122.37290952 331.23452761 99.70548882 329.15811827 75.44140625 320.48828125 C71.97198022 319.28668226 68.69067021 318.23936473 65 318 C64.01 318.66 63.02 319.32 62 320 C66.04826144 325.56235795 70.12216293 331.10486421 74.23046875 336.62304688 C75.30162351 338.06189383 76.37011729 339.50273425 77.43359375 340.94726562 C82.01308415 347.56764595 82.01308415 347.56764595 88.625 351.75 C92.28719555 352.02127374 95.41490126 351.78872172 99 351 C99.33 350.67 99.66 350.34 100 350 C107.03846154 349.42307692 107.03846154 349.42307692 110.5 351.5 C112.59158203 354.98597004 112.8876276 358.10215706 112 362 C109.875 365 109.875 365 107 367 C103.6875 367.3125 103.6875 367.3125 101 367 C102.41738489 370.25207092 104.12526412 372.31361067 106.6875 374.75 C109.42155183 377.41015854 112.01887216 380.10249898 114.5 383 C117.51228477 386.5052041 120.72034807 389.74266758 124.015625 392.98046875 C126.60600634 395.61674268 128.99014777 398.40325935 131.359375 401.23828125 C133.09262501 403.09946162 134.92644427 404.5349878 137 406 C141.26648884 401.85022362 145.28199844 397.57561886 149.15625 393.05859375 C151.79434457 390.11309409 154.6339975 387.39038568 157.49609375 384.6640625 C159.22350093 383.12652316 159.22350093 383.12652316 159 381 C159.66 381 160.32 381 161 381 C162.46870728 379.58680081 162.46870728 379.58680081 164 377.6875 C167.85291909 373.13552808 171.89207229 368.77571109 175.9609375 364.41796875 C178.17306698 362.09720151 178.17306698 362.09720151 179 359 C172.84632487 359.70921285 166.77475907 360.66692726 160.6875 361.8125 C159.79482422 361.96525391 158.90214844 362.11800781 157.98242188 362.27539062 C152.97367923 363.10059842 152.97367923 363.10059842 149.07421875 366.078125 C148.71972656 366.71234375 148.36523438 367.3465625 148 368 C144.39949922 369.17407634 142.72071287 369.32759676 139.25 367.75 C137 366 137 366 135 363 C134.67002525 359.12279666 134.69922064 356.2210911 137 353 C139.73702027 350.87120646 141.09830485 351.00677964 144.625 351.25 C148 352 148 352 150 354 C160.37886252 354.67688234 170.95151752 351.37536265 180.83007812 348.58935547 C182.55279668 348.12146139 184.2977181 347.73546516 186.046875 347.37890625 C195.47982202 344.897363 200.75703362 334.54669404 206 327 C206.87163667 325.76899336 207.74397132 324.53848047 208.6171875 323.30859375 C210.78473039 320.23228185 212.90083213 317.12346063 215 314 C215.62132812 313.07574219 216.24265625 312.15148437 216.8828125 311.19921875 C218.26184549 309.13708338 219.63506834 307.07148452 221 305 C220.67 304.34 220.34 303.68 220 303 C218.63681641 303.85271484 218.63681641 303.85271484 217.24609375 304.72265625 C209.41632972 309.55123841 201.6547677 313.691805 193.14453125 317.19921875 C189.4887737 319.29276438 188.15070813 321.43819377 186 325 C182.8033779 326.39339938 181.52015101 326.18914582 178.25 325 C176 323 176 323 174.875 319.625 C175 316 175 316 176.9375 313 C180 311 180 311 183.6875 311.58203125 C188.59137306 312.33113299 191.73984309 310.90420805 196.0625 308.6875 C196.7956543 308.32503174 197.52880859 307.96256348 198.28417969 307.58911133 C205.96779948 303.68522996 213.05442811 299.08399043 220 294 C220.58297852 293.58943359 221.16595703 293.17886719 221.76660156 292.75585938 C250.45323511 272.32286745 258.69479631 222.52526711 264.515625 190.13037109 C265.57700966 183.77693164 266.35751906 177.40847518 267 171 C267.09764648 170.02724121 267.19529297 169.05448242 267.29589844 168.05224609 C269.71221964 142.4612079 269.63851626 116.68177687 270 91 C268.88625 90.71125 267.7725 90.4225 266.625 90.125 C263 89 263 89 261 87 C260.92719036 85.56419394 260.91632577 84.12499502 260.9375 82.6875 C259.66590038 67.9157511 240.54890222 50.44754864 230 41 C206.43576812 21.37854156 176.60321554 5.79303732 145.38671875 5.62890625 C143.75135918 5.61536354 143.75135918 5.61536354 142.08296204 5.60154724 C139.78279329 5.58711149 137.4825841 5.57817473 135.18237305 5.57446289 C131.73477079 5.56266181 128.2890176 5.51348705 124.84179688 5.46289062 C106.30920445 5.32518824 89.29950643 7.80282915 72.375 15.6875 C71.49328125 16.07744141 70.6115625 16.46738281 69.703125 16.86914062 C63.15930835 19.37758704 63.15930835 19.37758704 59 24.5 C58 27 58 27 55 29 C51.5 28.9375 51.5 28.9375 48 28 C46 25.875 46 25.875 45 23 C45.3125 19.1875 45.3125 19.1875 46 16 C49 15 49 15 52.69921875 15.1484375 C57.37466154 15.20619863 60.70745514 13.72544935 64.8125 11.625 C65.79379883 11.14933594 65.79379883 11.14933594 66.79492188 10.6640625 C69.66542325 9.25666652 72.33706094 7.77529271 75 6 C67.69095257 5.71889394 60.38331814 5.52756972 53.07006836 5.39575195 C50.58776779 5.34075459 48.10581829 5.26592632 45.62475586 5.17016602 C29.84225041 4.57669557 19.50735005 4.28410555 9 17 Z M187 6 C190.3401588 8.22677253 193.8404558 9.92964379 197.4375 11.6875 C214.20306698 20.00800707 228.47631827 30.11204689 242 43 C242.71929687 43.66644531 243.43859375 44.33289063 244.1796875 45.01953125 C252.73013514 53.1750787 259.61321091 62.86452296 265.52734375 73.05078125 C266.01332031 73.69402344 266.49929688 74.33726563 267 75 C267.99 75 268.98 75 270 75 C270.04902888 71.64969307 270.05769299 68.30334382 270.01953125 64.953125 C269.98026846 61.24856556 270.07773908 57.56193842 270.19921875 53.859375 C270.7676755 40.51807938 270.7676755 40.51807938 264.97949219 29.03198242 C260.29991481 24.5638832 256.60337965 22.64210534 250 22 C247.5625 20.4375 247.5625 20.4375 246 18 C245.22397557 13.21615317 245.81112329 10.37775342 248 6 C227.87 6 207.74 6 187 6 Z M260 6 C260.28875 6.515625 260.5775 7.03125 260.875 7.5625 C262 10 262 10 262.8125 13.4375 C264.15206527 17.45619581 265.83760054 19.25370573 269 22 C269.02701408 19.89590361 269.04640223 17.79170822 269.0625 15.6875 C269.07410156 14.51574219 269.08570313 13.34398437 269.09765625 12.13671875 C269.14899898 8.96940805 269.14899898 8.96940805 268 6 C265.36 6 262.72 6 260 6 Z " fill="#000000" transform="translate(36,36)"/>
<path d="M0 0 C1.875 1.375 1.875 1.375 3 3 C3 3.66 3 4.32 3 5 C4.01126953 5.15662109 4.01126953 5.15662109 5.04296875 5.31640625 C23.55534007 9.59601653 39.82799611 21.86515268 53 35 C54.29164063 36.28583984 54.29164063 36.28583984 55.609375 37.59765625 C56.39828125 38.39042969 57.1871875 39.18320313 58 40 C58.67160156 40.66257813 59.34320313 41.32515625 60.03515625 42.0078125 C86.81771912 69.97727122 94.93533735 107.24373685 94.13134766 144.71484375 C93.90276659 150.43191975 93.2271396 156.03115051 92.33984375 161.6796875 C91.84734876 165.00125933 91.84734876 165.00125933 92.57421875 168.26171875 C93 171 93 171 90.875 173.9375 C88 176 88 176 85.375 176 C82.79923892 174.91546902 81.53381248 174.34108221 80 172 C79.5625 169.0625 79.5625 169.0625 80 166 C80.96546753 165.07815918 80.96546753 165.07815918 81.95043945 164.13769531 C88.4169252 157.39313912 86.35879564 143.12185767 86.3125 134.25 C86.31100952 133.54345276 86.30951904 132.83690552 86.3079834 132.10894775 C86.26872822 121.76403665 85.74418118 112.02635894 83 102 C82.73316406 100.87078125 82.46632813 99.7415625 82.19140625 98.578125 C74.19895392 67.17666783 53.5082996 39.60289957 25.90966797 22.76025391 C17.99173071 18.11545318 9.65765261 14.96833804 1 12 C0.67 12.33 0.34 12.66 0 13 C-5.20177384 13.45232816 -5.20177384 13.45232816 -7.875 11.9375 C-9.64273274 8.8930714 -9.36823916 6.4368988 -9 3 C-6.84332735 -0.71426957 -4.0099826 -0.50124783 0 0 Z " fill="#000000" transform="translate(202,67)"/>
<path d="M0 0 C2.4375 2.1875 2.4375 2.1875 4 5 C3.9286846 7.99524661 3.42868534 9.43491478 1.625 11.8125 C0 13 0 13 -3 13 C-3.25523437 13.87140625 -3.51046875 14.7428125 -3.7734375 15.640625 C-13.23617835 41.55768594 -41.13676746 62.48718157 -65.18164062 73.68652344 C-93.94815196 86.50569252 -127.96918786 88.81555651 -157.60205078 77.57275391 C-158.93573696 77.04658645 -160.26205939 76.50108858 -161.57763672 75.93115234 C-164.9493639 74.51602798 -167.68270536 73.86776133 -171.296875 73.96484375 C-175 74 -175 74 -177.5625 71.8125 C-179 69 -179 69 -178.9375 66.375 C-177.90737836 63.76535851 -177.35055139 62.54001643 -175 61 C-171.75055942 60.59381993 -169.85181176 60.40373176 -167.125 62.3125 C-166 64 -166 64 -166 67 C-165.38253906 67.18175781 -164.76507813 67.36351562 -164.12890625 67.55078125 C-160.00293671 68.77538408 -155.91750632 70.02217854 -151.875 71.5 C-121.99408255 81.22029845 -88.95676864 77.09984633 -61.1628418 63.18359375 C-39.52845375 51.91769672 -18.70928161 32.83579641 -9 10 C-8.81184066 6.30436827 -8.81184066 6.30436827 -9 3 C-6.85140347 -0.70036069 -3.99942333 -0.65296707 0 0 Z " fill="#000000" transform="translate(283,252)"/>
<path d="M0 0 C5.93075295 5.35029628 8.58856914 11.6144742 9.5859375 19.46875 C9.08453149 27.45889742 5.99562124 34.77813698 0 40.09765625 C-5.76308401 44.41408856 -11.62980869 46.82117055 -18.9140625 46.53125 C-25.89656741 45.40188684 -31.88545636 42.57390253 -36.9140625 37.53125 C-36.9140625 36.87125 -36.9140625 36.21125 -36.9140625 35.53125 C-37.5740625 35.53125 -38.2340625 35.53125 -38.9140625 35.53125 C-43.05524232 28.37662236 -44.04677826 21.71859897 -42.9140625 13.53125 C-40.29092385 5.08149364 -35.29682357 0.125129 -27.8515625 -4.28125 C-17.97140488 -8.27535627 -8.32058431 -6.3847749 0 0 Z M-29.5859375 5.93359375 C-34.01619199 11.05444673 -35.39448509 15.30447581 -35.21875 21.93359375 C-34.62947214 26.95756526 -32.89570136 30.61488865 -29.25390625 34.13671875 C-23.83208224 38.11123861 -18.44944426 38.43337325 -11.9140625 37.53125 C-6.71432516 35.79800422 -4.05222656 32.97698242 -0.9140625 28.53125 C1.55417902 23.48257416 1.41386389 18.89106883 0.0859375 13.53125 C-2.52487548 8.58935401 -5.60706504 4.86323509 -10.8828125 2.73828125 C-17.39479435 0.84659638 -24.2290699 1.44033331 -29.5859375 5.93359375 Z " fill="#000000" transform="translate(183.9140625,176.46875)"/>
<path d="M0 0 C2.4375 0.6875 2.4375 0.6875 5 2 C5.37309899 3.65821773 5.70700977 5.32577014 6 7 C7.32670979 7.67975243 8.66162008 8.34352349 10 9 C29.41665504 25.48712463 40.99153271 50.20513755 43.71875 75.30078125 C45.4172055 97.64018904 41.62071827 119.21849559 30.25390625 138.6875 C28.60332874 141.73155571 27.80225568 144.64511263 27 148 C26 149 26 149 23.625 149.25 C21 149 21 149 19.125 147.875 C17.44709369 145.07848948 18.25124352 143.06309468 19 140 C19.78375 139.938125 20.5675 139.87625 21.375 139.8125 C22.674375 139.4103125 22.674375 139.4103125 24 139 C25.04294027 136.83347389 25.04294027 136.83347389 26 134 C26.53302915 132.73516483 27.07405616 131.47368368 27.62109375 130.21484375 C37.19685741 107.77705271 40.64459853 83.86137205 34 60 C33.67128906 58.78441406 33.34257812 57.56882813 33.00390625 56.31640625 C28.96135196 42.87386412 22.56962954 30.82236142 12.65234375 20.8203125 C11 19 11 19 11 17 C10.401875 16.731875 9.80375 16.46375 9.1875 16.1875 C7 15 7 15 5.6875 13.5 C3.14103713 11.23647745 0.25554744 10.7985305 -3 10 C-3.75 7.25 -3.75 7.25 -4 4 C-2.0625 1.625 -2.0625 1.625 0 0 Z " fill="#000000" transform="translate(220,111)"/>
<path d="M0 0 C1.81781982 0.00205444 1.81781982 0.00205444 3.67236328 0.00415039 C12.78935849 0.1580925 20.95763729 1.52595677 29.6171875 4.30859375 C32.90152008 5.34988423 35.97963533 5.98796111 39.375 6.5 C44.03017241 8.15517241 44.03017241 8.15517241 45.375 9.5 C45.08769945 11.83944736 44.75563221 14.1739143 44.375 16.5 C41.5625 17.1875 41.5625 17.1875 38.375 17.5 C36.5 16.1875 36.5 16.1875 35.375 14.5 C35.375 13.84 35.375 13.18 35.375 12.5 C9.41669553 5.22197071 -16.95334365 3.31405725 -41.53271484 16.52539062 C-48.64067547 20.61232991 -55.0402964 25.3647501 -60.953125 31.06640625 C-62.625 32.5 -62.625 32.5 -64.625 32.5 C-64.87765625 33.06460938 -65.1303125 33.62921875 -65.390625 34.2109375 C-66.79335952 36.81221102 -68.47396049 38.86291035 -70.375 41.125 C-78.39312026 50.7090085 -78.39312026 50.7090085 -80.625 62.5 C-82.3125 64.9375 -82.3125 64.9375 -84.625 66.5 C-87.25 66.4375 -87.25 66.4375 -89.625 65.5 C-91.625 62.5 -91.625 62.5 -91.5625 60.125 C-90.625 57.5 -90.625 57.5 -88.32421875 55.24609375 C-85.50586445 52.37879552 -83.53904815 49.36100468 -81.5 45.9375 C-76.97511019 38.64333137 -71.677165 32.5610132 -65.625 26.5 C-64.90828125 25.77167969 -64.1915625 25.04335937 -63.453125 24.29296875 C-46.6071766 8.23865327 -22.98982721 -0.11744278 0 0 Z " fill="#000000" transform="translate(165.625,95.5)"/>
<path d="M0 0 C2.76314599 0.89802245 3.9089781 1.38409816 5.5 3.8125 C6.04400387 7.46509739 5.93774093 9.1558886 3.875 12.25 C1.5 13.8125 1.5 13.8125 -1.625 13.6875 C-4.5 12.8125 -4.5 12.8125 -6.5 10.8125 C-9.06163054 10.72101319 -11.45268132 10.76382562 -14 10.9375 C-14.75466553 10.98753174 -15.50933105 11.03756348 -16.28686523 11.08911133 C-40.5112983 13.01676515 -62.22244457 22.20320277 -81.5 36.8125 C-82.49 37.4725 -83.48 38.1325 -84.5 38.8125 C-84.809375 39.781875 -85.11875 40.75125 -85.4375 41.75 C-86.61272992 45.13742741 -87.2968606 46.25668944 -90.5 47.8125 C-93.31900839 47.6749874 -94.95769347 47.16780428 -97.3125 45.625 C-99.10972017 42.88187448 -98.95774125 41.01668874 -98.5 37.8125 C-96.34377939 34.70754232 -94.92354757 33.91978516 -91.24609375 32.98828125 C-87.20034857 31.71844882 -84.40758105 29.81652306 -81.125 27.25 C-60.41559079 11.87772061 -36.94040833 4.7644619 -11.40039062 2.54589844 C-7.24310961 2.15603786 -3.80404272 -0.2853032 0 0 Z " fill="#000000" transform="translate(173.5,62.1875)"/>
<path d="M0 0 C3.70358847 3.26268508 7.35511373 6.60478861 7.86328125 11.703125 C8.02136908 17.79366678 7.88990941 21.5865193 3.625 26.3125 C-1.05790995 30.53854069 -4.76416083 31.7493622 -10.9609375 31.6484375 C-15.95748976 30.9531244 -19.73326027 28.4814463 -22.76171875 24.48046875 C-25.26503862 20.02719446 -26.6285788 15.38379604 -25.375 10.3125 C-23.21041713 5.76094562 -20.66329695 2.27872271 -16.625 -0.75 C-10.72359691 -2.45232781 -5.56544419 -2.78272209 0 0 Z M-18.375 6.3125 C-18.045 6.9725 -17.715 7.6325 -17.375 8.3125 C-16.50875 7.673125 -15.6425 7.03375 -14.75 6.375 C-11.4151188 4.33701704 -9.21452522 3.67816907 -5.375 3.3125 C-5.375 2.9825 -5.375 2.6525 -5.375 2.3125 C-11.26308394 1.91330787 -13.99840682 1.93590682 -18.375 6.3125 Z M-20.375 9.3125 C-19.375 11.3125 -19.375 11.3125 -19.375 11.3125 Z " fill="#000000" transform="translate(175.375,181.6875)"/>
<path d="M0 0 C2.475 1.485 2.475 1.485 5 3 C4.75 4.875 4.75 4.875 4 7 C1.57134102 8.77478925 -0.24591029 9.02745457 -3.25390625 9.36328125 C-17.50415254 11.78537733 -29.40616024 23.76184403 -37.51953125 35.12890625 C-42.16773674 42.27184481 -44.60128657 49.87686687 -47 58 C-47.18175781 58.60980713 -47.36351563 59.21961426 -47.55078125 59.84790039 C-48.55252245 64.64700293 -48.18475244 69.68008398 -48.1875 74.5625 C-48.19974609 75.71169922 -48.21199219 76.86089844 -48.22460938 78.04492188 C-48.22654297 79.14513672 -48.22847656 80.24535156 -48.23046875 81.37890625 C-48.23663208 82.88819702 -48.23663208 82.88819702 -48.24291992 84.42797852 C-48.18233748 87.24000032 -48.18233748 87.24000032 -46 90 C-45.75 92.5625 -45.75 92.5625 -46 95 C-46.99 95.99 -46.99 95.99 -48 97 C-50.625 96.625 -50.625 96.625 -53 96 C-58.5257723 77.27578011 -53.88951648 53.96127973 -44.8671875 37.09765625 C-42.24657427 32.75006987 -39.28851102 28.85576001 -36 25 C-35.35933594 24.17242187 -34.71867187 23.34484375 -34.05859375 22.4921875 C-28.00238667 15.16038463 -20.1797412 10.77634899 -11.70996094 6.78979492 C-7.53313378 4.8226807 -3.78183965 2.65433466 0 0 Z " fill="#000000" transform="translate(149,122)"/>
<path d="M0 0 C20.96231113 1.1501061 40.13523413 7.96255761 55.1484375 23.01953125 C66.43853296 35.76070481 71.89768113 49.76577759 75.68701172 66.04345703 C76.12460053 68.0516735 76.12460053 68.0516735 76.83251953 70.08544922 C77.1484375 72.01953125 77.1484375 72.01953125 75.1484375 75.01953125 C73.4984375 74.68953125 71.8484375 74.35953125 70.1484375 74.01953125 C69.40660341 70.84024228 69.05798231 67.76561485 68.8359375 64.51953125 C67.22581729 48.32220261 59.44692511 35.37931265 48.1484375 24.01953125 C47.63152344 23.4678125 47.11460937 22.91609375 46.58203125 22.34765625 C36.64318511 12.69426 20.6737486 6.98295237 7.0859375 6.76953125 C4.05382038 6.82296063 2.05301643 7.05133827 -0.8515625 8.01953125 C-3.0390625 6.58203125 -3.0390625 6.58203125 -4.8515625 5.01953125 C-3.72387938 0.02550602 -3.72387938 0.02550602 0 0 Z " fill="#000000" transform="translate(162.8515625,120.98046875)"/>
<path d="M0 0 C1 1 1 1 1.1875 3.9375 C1 7 1 7 -1 9 C-6.45787858 29.63678731 -0.1450012 52.43783246 8.01953125 71.36328125 C8.97742738 73.27516804 8.97742738 73.27516804 11.625 74.4375 C12.40875 74.953125 13.1925 75.46875 14 76 C14.58608428 78.9304214 14.41078562 80.3153573 12.875 82.875 C11 84 11 84 7.875 83.75 C5 83 5 83 4 82 C3.79375 80.845 3.5875 79.69 3.375 78.5 C2.35943491 73.63148948 0.51992161 69.29509662 -1.4375 64.75 C-4.47781909 57.61946745 -6.67808914 50.66708299 -8 43 C-8.13019531 42.26136719 -8.26039062 41.52273437 -8.39453125 40.76171875 C-9.81258895 30.72187026 -9.4081113 20.07518301 -8.14453125 10.05078125 C-7.89776845 7.75624917 -7.89776845 7.75624917 -8.625 4.5625 C-9 2 -9 2 -7.9375 0.0625 C-5.06369928 -1.51345523 -3.08587291 -0.80501033 0 0 Z " fill="#000000" transform="translate(77,172)"/>
<path d="M0 0 C2.4375 0.8125 2.4375 0.8125 4.4375 2.8125 C4.71980469 3.58980469 5.00210938 4.36710937 5.29296875 5.16796875 C9.98159371 16.00141277 25.02061019 23.2043447 35.54663086 27.40112305 C44.88854347 30.9357525 55.14839353 34.63477662 65.1875 32.125 C67.4375 31.8125 67.4375 31.8125 69.25 32.9375 C70.8499499 35.46373669 70.95141252 36.87585703 70.4375 39.8125 C69 41.8125 69 41.8125 66.4375 42.8125 C64.24770106 42.340851 62.26562893 41.57283294 60.17578125 40.765625 C57.06016205 39.6811584 53.98856384 39.06267731 50.75 38.4375 C32.61409654 34.63889509 15.83517283 26.59841472 2.83203125 13.15234375 C0.69499045 11.09910847 -1.90864393 10.08173551 -4.5625 8.8125 C-5.5625 7.8125 -5.5625 7.8125 -5.8125 5.4375 C-5.5625 2.8125 -5.5625 2.8125 -4.375 0.9375 C-2.5625 -0.1875 -2.5625 -0.1875 0 0 Z " fill="#000000" transform="translate(96.5625,259.1875)"/>
<path d="M0 0 C2.625 0.25 2.625 0.25 4.5 1.4375 C5.625 3.25 5.625 3.25 5.4375 5.8125 C4.625 8.25 4.625 8.25 2.625 10.25 C1.84898437 10.53746094 1.07296875 10.82492187 0.2734375 11.12109375 C-2.77152279 12.4190193 -4.40963486 13.98445258 -6.75 16.3125 C-18.43960327 27.11494588 -33.60532052 34.91245901 -49.375 37.25 C-49.705 38.24 -50.035 39.23 -50.375 40.25 C-53.25 40.375 -53.25 40.375 -56.375 40.25 C-58.375 38.25 -58.375 38.25 -58.6875 35.25 C-58.584375 34.26 -58.48125 33.27 -58.375 32.25 C-55.08100082 30.05400054 -54.83212159 30.12361911 -51.1875 30.5 C-34.77048162 30.76286347 -18.87824472 18.77276846 -7.265625 8.390625 C-5.24200517 6.09941908 -4.36959169 4.11676429 -3.375 1.25 C-2.375 0.25 -2.375 0.25 0 0 Z " fill="#000000" transform="translate(235.375,259.75)"/>
<path d="M0 0 C0.495 0.99 0.495 0.99 1 2 C0.34 2.99 -0.32 3.98 -1 5 C-3.07964698 4.96590743 -5.15932767 4.92688853 -7.23828125 4.86328125 C-19.1600613 5.45346838 -29.43270949 11.67838027 -37.44140625 20.16796875 C-44.54126553 28.51341738 -48.41469155 39.07424229 -49 50 C-48.66499921 52.36693717 -48.66499921 52.36693717 -48 54 C-49.875 55.0625 -49.875 55.0625 -52 56 C-52.66 55.67 -53.32 55.34 -54 55 C-52.98171511 36.84643842 -47.35816531 23.24193182 -33.734375 10.95703125 C-25.89865513 4.53228891 -10.26072926 -4.36263786 0 0 Z " fill="#000000" transform="translate(169,144)"/>
<path d="M0 0 C2.375 -0.125 2.375 -0.125 5 0 C7 2 7 2 7.1875 4.375 C5.54377012 8.00850815 3.61601178 8.414909 -0.00390625 9.828125 C-2.32727152 10.73687282 -4.57405619 11.69725391 -6.83984375 12.734375 C-7.86646118 13.20061279 -7.86646118 13.20061279 -8.91381836 13.67626953 C-10.26944698 14.29276723 -11.62324374 14.91331476 -12.97485352 15.53857422 C-21.85439747 19.49952018 -30.40840192 20.33263615 -40.0625 20.625 C-41.11888672 20.66367187 -42.17527344 20.70234375 -43.26367188 20.7421875 C-45.84228408 20.83553093 -48.42090608 20.92131253 -51 21 C-51.66 19.35 -52.32 17.7 -53 16 C-51.75 14.4375 -51.75 14.4375 -50 13 C-48.0625 13.25 -48.0625 13.25 -46 14 C-33.93086822 18.00424466 -19.0808148 12.66609173 -8.1328125 7.69921875 C-4.06306975 5.59933551 -1.80571667 4.33555323 0 0 Z " fill="#000000" transform="translate(205,251)"/>
<path d="M0 0 C13.86410726 2.39470944 25.88619464 10.16962401 34.28125 21.3515625 C40.83437725 31.44933586 43.25383897 41.55261449 43.625 53.4375 C43.68300781 54.96407227 43.68300781 54.96407227 43.7421875 56.52148438 C43.83580872 59.01414936 43.92153993 61.5068195 44 64 C41.525 64.495 41.525 64.495 39 65 C38.61781233 63.34385343 38.28604898 61.67542976 38 60 C38.33 59.67 38.66 59.34 39 59 C40.32088925 44.26700451 36.296743 30.93470911 27.3125 19.25 C20.70027333 12.04925054 11.39138792 7.29118719 1.80859375 5.6171875 C1.21175781 5.41351563 0.61492187 5.20984375 0 5 C-0.33 4.01 -0.66 3.02 -1 2 C-0.67 1.34 -0.34 0.68 0 0 Z " fill="#000000" transform="translate(173,144)"/>
<path d="M0 0 C2.625 0.375 2.625 0.375 5 1 C5.12375 2.051875 5.2475 3.10375 5.375 4.1875 C8.37772768 16.09268085 20.01486861 25.62252547 29.8984375 31.81640625 C34.54649369 34.50181137 37.5763378 36.18479258 43 36 C44.875 37.25 44.875 37.25 46 39 C45.74853421 41.13745922 45.54074221 42.45925779 44 44 C42.33382885 44.04063832 40.66611905 44.042721 39 44 C38.67 43.01 38.34 42.02 38 41 C36.01973312 40.27682123 34.01558435 39.61795161 32 39 C20.78189859 33.07980255 11.39716289 24.81806445 4.50390625 14.1875 C3.14979383 12.21788193 1.83572852 10.76809367 0.0625 9.1875 C-2 7 -2 7 -2.4375 4.3125 C-2 2 -2 2 0 0 Z " fill="#000000" transform="translate(103,225)"/>
<path d="M0 0 C2.475 1.485 2.475 1.485 5 3 C4.85377197 3.57782227 4.70754395 4.15564453 4.55688477 4.75097656 C4.04355031 6.82411861 3.564081 8.90201742 3.08984375 10.984375 C0.08175051 23.64644214 -4.00664934 35.54715683 -12 46 C-12.33 46.886875 -12.66 47.77375 -13 48.6875 C-13.33 49.450625 -13.66 50.21375 -14 51 C-15.485 51.495 -15.485 51.495 -17 52 C-17.99 51.34 -18.98 50.68 -20 50 C-20.1875 47.375 -20.1875 47.375 -20 45 C-19.21625 44.773125 -18.4325 44.54625 -17.625 44.3125 C-14.24427238 42.62213619 -14.29235155 41.48310363 -13 38 C-11.86556017 35.78579215 -10.71867009 33.57793914 -9.5625 31.375 C-5.00039632 22.38860987 -2.48540033 14.409916 -3.1875 4.21484375 C-3.0946875 3.11849609 -3.0946875 3.11849609 -3 2 C-2.01 1.34 -1.02 0.68 0 0 Z " fill="#000000" transform="translate(235,197)"/>
<path d="M0 0 C2.125 0.375 2.125 0.375 4 1 C4 1.66 4 2.32 4 3 C9.56525171 3.79055436 14.94498858 4.15550232 20.5625 4.125 C21.63661133 4.13080078 21.63661133 4.13080078 22.73242188 4.13671875 C27.25367635 4.12849081 31.53905679 3.73860558 36 3 C36 2.34 36 1.68 36 1 C36.99 0.67 37.98 0.34 39 0 C39.99 0.99 40.98 1.98 42 3 C41.67 3.99 41.34 4.98 41 6 C39.109375 6.6953125 39.109375 6.6953125 36.75 7.125 C35.98171875 7.27195313 35.2134375 7.41890625 34.421875 7.5703125 C33.22304687 7.78300781 33.22304687 7.78300781 32 8 C31.20980469 8.17789063 30.41960937 8.35578125 29.60546875 8.5390625 C19.15655466 10.38759603 9.12644951 8.58547647 -1 6 C-1.625 4.125 -1.625 4.125 -2 2 C-1.34 1.34 -0.68 0.68 0 0 Z " fill="#000000" transform="translate(146,240)"/>
<path d="M0 0 C1.98 0.495 1.98 0.495 4 1 C4.13277344 1.71929687 4.26554687 2.43859375 4.40234375 3.1796875 C6.82841736 14.62821785 12.09305576 25.04126654 22 31.6875 C23.32083666 32.47955576 24.64973344 33.25922876 26 34 C25.67 35.32 25.34 36.64 25 38 C18.21396483 37.41833984 14.65874925 31.7805669 10.5 26.875 C6.22039779 21.60560627 3.44369157 16.30060237 1 10 C0.61972656 9.12730469 0.23945312 8.25460938 -0.15234375 7.35546875 C-1.17691117 4.50839891 -0.81967605 2.86886617 0 0 Z " fill="#000000" transform="translate(117,204)"/>
<path d="M0 0 C2.475 0.495 2.475 0.495 5 1 C5 2.32 5 3.64 5 5 C4.34 5 3.68 5 3 5 C2.73703125 5.8765625 2.4740625 6.753125 2.203125 7.65625 C-0.62610468 15.51930391 -5.68205205 22.56362619 -12 28 C-12.66 28 -13.32 28 -14 28 C-14 28.99 -14 29.98 -14 31 C-15.875 31.625 -15.875 31.625 -18 32 C-18.66 31.34 -19.32 30.68 -20 30 C-20 28.0625 -20 28.0625 -19 26 C-18.13375 25.5875 -17.2675 25.175 -16.375 24.75 C-8.08187122 20.44985915 -4.17972985 12.46176041 -1 4 C-0.63950959 2.67375132 -0.2948206 1.34237465 0 0 Z " fill="#000000" transform="translate(210,210)"/>
<path d="M0 0 C0 3 0 3 -1.79296875 4.89453125 C-2.97826172 5.84392578 -2.97826172 5.84392578 -4.1875 6.8125 C-4.96480469 7.45832031 -5.74210938 8.10414063 -6.54296875 8.76953125 C-9 10 -9 10 -11.59375 9.35546875 C-14.8468389 7.52296575 -17.26104164 5.54786824 -20 3 C-20 2.34 -20 1.68 -20 1 C-17.04170322 0.832662 -14.08336635 0.66609948 -11.125 0.5 C-9.86236328 0.42845703 -9.86236328 0.42845703 -8.57421875 0.35546875 C-7.76855469 0.31035156 -6.96289062 0.26523437 -6.1328125 0.21875 C-5.38918457 0.17685547 -4.64555664 0.13496094 -3.87939453 0.09179688 C-2.58744125 0.0286929 -1.29349349 0 0 0 Z " fill="#000000" transform="translate(183,421)"/>
</svg>
